<?xml version="1.0" standalone="no"?>
<!DOCTYPE svg PUBLIC "-//W3C//DTD SVG 20010904//EN"
 "http://www.w3.org/TR/2001/REC-SVG-20010904/DTD/svg10.dtd">
<svg version="1.0" xmlns="http://www.w3.org/2000/svg"
 width="300.000000pt" height="300.000000pt" viewBox="0 0 300.000000 300.000000"
 preserveAspectRatio="xMidYMid meet">
<metadata>
Created by potrace 1.11, written by Peter Selinger 2001-2013
</metadata>
<g transform="translate(0.000000,300.000000) scale(0.100000,-0.100000)"
fill="#000000" stroke="none">
<path d="M1408 2215 c-2 -2 -32 -5 -68 -8 -80 -7 -184 -24 -226 -38 -17 -5
-40 -11 -51 -13 -46 -9 -123 -50 -139 -73 -14 -22 -15 -50 -11 -212 5 -176 9
-264 22 -443 7 -88 2 -93 -60 -58 -47 26 -49 26 -41 -12 10 -50 32 -76 74 -88
l38 -10 3 -97 c3 -113 6 -165 16 -283 4 -47 7 -92 7 -100 1 -28 49 -68 106
-86 41 -14 86 -19 162 -18 93 0 205 10 220 19 3 2 7 -31 8 -73 l2 -77 -45 -23
c-41 -20 -48 -21 -73 -9 -46 24 -111 20 -154 -8 -86 -57 -108 -211 -41 -287 9
-10 12 -22 7 -30 -5 -7 -9 -17 -11 -23 -1 -5 -4 -21 -7 -35 -11 -47 -14 -89
-9 -110 5 -17 13 -20 64 -20 33 0 59 3 60 8 0 4 2 25 5 46 7 67 26 70 22 4
l-4 -58 342 0 c371 0 352 -3 349 58 -3 46 11 40 21 -11 l9 -42 71 -3 71 -3 -4
38 c-5 49 -21 100 -44 140 -18 32 -18 33 6 85 49 108 10 237 -86 286 -43 22
-140 20 -164 -4 -17 -18 -32 -16 -110 13 -27 10 -51 18 -52 18 -4 1 -15 70
-17 106 -2 19 -6 40 -10 47 -8 13 10 23 84 47 30 10 67 24 83 32 27 14 27 15
22 88 -3 40 -8 194 -11 342 -3 147 -5 273 -5 278 -1 6 2 20 5 32 2 13 1 25 -4
28 -7 5 -10 57 -15 381 -1 77 -5 150 -9 161 -13 42 -180 91 -330 97 -42 1 -77
2 -78 1z"/>
</g>
</svg>
