<?xml version="1.0" standalone="no"?>
<!DOCTYPE svg PUBLIC "-//W3C//DTD SVG 20010904//EN"
 "http://www.w3.org/TR/2001/REC-SVG-20010904/DTD/svg10.dtd">
<svg version="1.0" xmlns="http://www.w3.org/2000/svg"
 width="512.000000pt" height="512.000000pt" viewBox="0 0 512.000000 512.000000"
 preserveAspectRatio="xMidYMid meet">
<metadata>
Created by potrace 1.11, written by Peter Selinger 2001-2013
</metadata>
<g transform="translate(0.000000,512.000000) scale(0.100000,-0.100000)"
fill="#000000" stroke="none">
<path d="M2329 3783 c-2 -6 -28 -13 -59 -14 -30 -1 -58 -7 -62 -13 -6 -8 -11
-7 -17 3 -5 8 -10 9 -12 3 -2 -6 -23 -12 -46 -13 -24 -2 -43 -6 -43 -10 0 -3
-15 -6 -32 -6 -52 0 -122 -14 -130 -26 -4 -6 -10 -9 -13 -5 -4 4 -24 0 -46 -7
-21 -8 -39 -12 -39 -9 0 2 -10 -2 -23 -11 -13 -8 -27 -12 -30 -9 -4 4 -13 2
-20 -5 -8 -6 -26 -12 -41 -13 -14 -1 -26 -6 -26 -10 0 -4 -7 -8 -16 -8 -8 0
-12 -5 -9 -11 4 -6 1 -9 -6 -8 -8 1 -25 -3 -39 -9 -14 -6 -21 -11 -15 -11 5
-1 -1 -8 -13 -17 -12 -8 -20 -19 -17 -24 3 -4 -2 -11 -10 -14 -12 -4 -15 -20
-14 -63 1 -32 0 -62 -1 -68 -1 -5 -2 -12 0 -15 6 -17 4 -100 -4 -100 -5 0 -5
-5 0 -12 5 -7 9 -77 9 -155 0 -79 3 -143 7 -143 4 0 4 -10 -1 -23 -6 -15 -5
-28 3 -38 7 -10 11 -61 11 -133 0 -64 3 -116 7 -116 4 0 7 -17 6 -37 -3 -85 5
-214 14 -219 5 -3 4 -12 -3 -20 -9 -11 -9 -14 1 -14 10 0 10 -3 0 -15 -7 -8
-8 -15 -3 -15 5 0 9 -10 8 -22 -1 -18 -8 -23 -33 -25 -18 -1 -30 3 -26 8 3 5
-1 9 -10 9 -18 0 -76 32 -76 43 0 4 -6 7 -14 7 -8 0 -17 6 -19 13 -3 6 -6 -10
-6 -36 -1 -27 3 -46 7 -43 4 3 7 -8 6 -24 -1 -17 4 -31 13 -34 8 -3 12 -10 9
-15 -6 -10 51 -60 71 -62 22 -2 28 -4 42 -13 10 -6 12 -6 6 3 -5 9 -1 9 14 -1
19 -12 27 -44 22 -85 -1 -7 3 -13 9 -13 8 0 8 -6 0 -20 -6 -11 -7 -20 -3 -20
4 0 8 -58 8 -129 0 -71 3 -127 8 -124 9 6 9 -1 -3 -32 -5 -14 -6 -24 -2 -21 5
3 9 -27 9 -67 2 -142 6 -186 14 -181 5 3 9 0 9 -5 0 -6 -4 -11 -8 -11 -5 0 -9
-7 -9 -15 0 -8 4 -12 9 -9 4 3 8 -2 8 -11 0 -10 -5 -13 -12 -9 -7 5 -8 3 -2
-7 10 -16 14 -33 16 -72 0 -15 7 -32 15 -38 7 -6 13 -18 13 -26 0 -8 4 -12 8
-9 5 3 14 -4 22 -14 8 -10 17 -17 22 -14 4 3 8 0 8 -5 0 -6 9 -11 21 -11 11 0
18 -4 15 -9 -5 -7 45 -21 89 -26 6 0 15 -4 21 -7 6 -4 29 -8 52 -9 23 -2 42
-7 42 -12 0 -5 6 -4 14 2 11 9 16 9 21 0 6 -8 10 -7 16 2 6 10 9 11 9 2 0 -15
87 -18 110 -4 8 6 19 7 25 3 15 -10 36 -11 30 -2 -2 4 6 8 20 8 16 0 22 -5 18
-12 -5 -7 -2 -7 8 1 8 6 40 13 72 14 31 1 57 6 57 9 0 4 20 6 45 5 25 -1 45 2
45 7 0 4 8 8 18 8 13 0 14 -2 3 -9 -10 -7 -10 -10 -1 -13 10 -3 10 -9 0 -27
-6 -13 -8 -21 -3 -18 6 4 10 -36 12 -94 l2 -99 -28 -11 c-15 -6 -29 -9 -29 -7
-1 2 -11 -6 -23 -16 -12 -11 -24 -17 -27 -13 -8 8 -33 -16 -27 -25 2 -5 -8 -8
-22 -8 -14 0 -24 4 -21 9 5 7 -27 22 -56 25 -3 1 -10 4 -14 9 -4 4 -17 7 -29
7 -11 0 -27 6 -34 13 -11 9 -13 9 -7 0 4 -8 1 -13 -8 -13 -9 0 -16 6 -16 13 0
8 -3 9 -8 1 -4 -6 -18 -14 -32 -17 -47 -10 -100 -33 -93 -40 3 -4 -1 -7 -10
-7 -8 0 -19 -9 -22 -21 -4 -11 -9 -18 -13 -15 -9 10 -34 -33 -26 -46 4 -7 3
-8 -4 -4 -8 5 -12 0 -12 -13 0 -12 -4 -21 -10 -21 -5 0 -10 -9 -10 -19 0 -11
-4 -22 -9 -26 -6 -3 -8 -14 -6 -25 2 -11 -1 -20 -6 -20 -6 0 -5 -8 2 -21 8
-15 8 -19 0 -15 -6 4 -11 4 -12 -1 0 -4 -2 -18 -3 -30 -2 -15 1 -20 8 -14 7 6
11 2 11 -14 0 -13 -4 -21 -9 -18 -4 3 -5 -5 0 -18 4 -13 7 -30 7 -36 0 -7 4
-13 9 -13 4 0 7 -3 7 -7 -4 -23 2 -43 11 -38 5 3 10 1 10 -5 0 -17 36 -61 44
-53 3 3 6 -3 6 -15 0 -12 -4 -22 -10 -22 -5 0 -10 -7 -10 -15 0 -8 -4 -15 -9
-15 -6 0 -8 -9 -6 -20 2 -11 0 -22 -6 -25 -5 -4 -9 -22 -9 -41 0 -20 -5 -34
-12 -34 -10 0 -9 -3 1 -9 9 -6 10 -11 2 -15 -12 -8 -12 -96 0 -96 5 0 9 -5 9
-11 0 -5 -5 -7 -11 -3 -8 4 -8 0 0 -15 11 -19 20 -21 115 -21 l103 0 -2 28
c-1 15 2 32 7 39 5 7 5 14 -2 18 -6 3 -7 12 -3 18 4 7 9 23 11 37 1 14 9 30
17 36 8 6 11 15 7 19 -4 5 -2 5 5 1 11 -6 10 -36 -1 -55 -4 -5 0 -12 6 -14 10
-4 9 -6 -1 -6 -10 -1 -11 -4 -3 -14 8 -9 7 -20 -3 -40 -7 -14 -11 -35 -8 -47
5 -20 8 -20 592 -18 462 2 585 6 584 16 -2 6 2 12 8 12 8 0 8 5 -1 15 -7 8 -8
15 -3 15 10 0 8 92 -2 112 -4 7 3 2 14 -12 11 -14 21 -29 22 -35 1 -13 8 -53
13 -85 2 -14 5 -28 5 -32 1 -5 55 -8 122 -8 97 0 120 3 116 13 -3 8 -1 20 3
27 5 8 6 19 2 25 -4 5 -8 24 -9 40 -1 26 -7 59 -13 75 -1 3 -2 8 -1 13 0 4 -3
7 -7 7 -4 0 -8 10 -9 21 -1 12 -10 31 -20 42 -13 15 -14 18 -3 13 9 -5 8 -2
-2 7 -10 8 -15 17 -11 20 3 4 1 7 -5 7 -7 0 -12 7 -12 15 0 8 -4 15 -10 15 -5
0 -10 12 -10 26 0 14 4 23 9 20 9 -6 21 14 27 43 1 8 8 17 15 21 6 4 9 12 5
18 -3 6 -2 13 4 17 5 3 10 19 10 35 0 16 5 32 10 35 8 5 8 11 1 19 -6 7 -8 16
-4 20 4 4 9 19 10 34 3 22 1 24 -7 12 -9 -12 -10 -11 -5 7 3 12 1 41 -6 65 -6
24 -12 49 -12 56 0 6 -4 12 -9 12 -4 0 -8 7 -8 15 0 8 -4 15 -10 15 -5 0 -10
6 -10 14 0 8 -7 17 -16 20 -8 3 -12 10 -9 16 3 5 -1 10 -10 10 -9 0 -13 5 -10
10 3 6 -1 10 -10 10 -8 0 -18 7 -21 15 -4 8 -11 15 -16 15 -5 0 -24 10 -41 22
-17 12 -27 16 -22 7 8 -12 6 -12 -8 0 -9 7 -17 10 -17 6 0 -4 -8 -1 -17 6 -14
12 -16 12 -8 0 6 -11 5 -12 -6 -5 -21 13 -39 14 -39 1 0 -8 -3 -8 -8 -2 -8 12
-52 16 -52 5 0 -4 -13 -6 -30 -5 -16 1 -30 -1 -30 -5 0 -4 -13 -13 -30 -20
-16 -7 -30 -16 -30 -21 0 -5 -11 -9 -25 -9 -14 0 -25 5 -25 10 0 6 -3 9 -7 8
-14 -4 -82 26 -77 33 2 5 -4 6 -16 4 -11 -2 -22 0 -25 6 -4 5 -22 9 -41 9 -31
0 -39 8 -35 33 0 4 -3 7 -7 7 -5 0 -9 6 -9 13 0 6 -3 41 -7 77 -20 173 -18
184 30 193 24 5 54 16 76 28 10 5 27 9 38 9 11 0 20 5 20 10 0 6 10 10 23 10
13 0 27 3 31 7 4 5 11 8 14 8 4 1 23 6 43 13 35 12 37 15 33 50 -6 52 -21 379
-25 548 -1 39 1 76 5 83 4 6 4 11 -1 11 -4 0 -8 98 -7 217 0 120 -2 222 -5
228 -9 16 -8 44 1 39 4 -3 8 0 8 5 0 6 -6 11 -12 11 -9 0 -8 4 2 10 12 7 12
10 1 10 -8 0 -11 6 -7 16 3 8 1 25 -5 36 -9 16 -8 19 2 13 9 -6 10 -3 5 11
-11 28 -13 84 -2 84 5 0 5 5 -1 13 -5 6 -8 76 -8 155 0 78 -4 142 -9 142 -4 0
-3 7 4 15 9 10 9 15 1 15 -13 0 -10 22 4 32 6 5 5 8 -4 8 -11 0 -11 3 0 17 8
9 9 14 3 10 -9 -5 -12 51 -12 206 -1 272 0 259 -12 252 -5 -3 -10 0 -10 7 0
24 -129 96 -144 81 -3 -4 -6 -2 -6 4 0 6 -19 14 -42 19 -44 8 -55 10 -123 20
-22 4 -42 10 -45 14 -3 5 -32 9 -65 11 -33 1 -66 7 -74 13 -10 8 -13 8 -8 0 4
-7 -8 -10 -33 -10 -22 1 -40 6 -40 11 0 6 -5 3 -10 -5 -9 -13 -10 -13 -10 0 0
13 -1 13 -10 0 -7 -11 -10 -11 -10 -2 0 9 -5 10 -19 2 -14 -7 -21 -6 -24 3 -4
8 -6 9 -6 0 -1 -8 -10 -9 -31 -3 -19 5 -28 5 -25 -1 4 -5 0 -9 -9 -9 -8 0 -16
6 -18 13 -4 9 -6 9 -9 0z m-239 -1563 c0 -5 -2 -10 -4 -10 -3 0 -8 5 -11 10
-3 6 -1 10 4 10 6 0 11 -4 11 -10z m115 -2180 c3 -5 1 -10 -4 -10 -6 0 -11 5
-11 10 0 6 2 10 4 10 3 0 8 -4 11 -10z"/>
</g>
</svg>
